<svg width="969.79367" height="852.85895" xmlns="http://www.w3.org/2000/svg">
 <title>wishlist</title>

 <g>
  <title>background</title>
  <rect fill="none" id="canvas_background" height="402" width="582" y="-1" x="-1"/>
 </g>
 <g>
  <title>Layer 1</title>
  <path id="svg_1" fill="#f2f2f2" d="m777.452383,504.69771c-70.91063,59.15976 -115.24404,119.74285 -150.12273,173.38558c-62.8793,96.67741 -95.07739,170.84006 -196.89778,173.63493c-108.66732,2.98187 -246.156,-59.92857 -321.85636,-142.81871c-57.77786,-63.24292 -79.57571,-138.10167 -25.16415,-204.2018c125.71701,-152.73058 155.36958,-347.02051 347.02048,-347.02051s494.19258,224.25418 347.02054,347.02051z"/>
  <circle id="svg_2" fill="#00bf5f" r="56.43256" cy="293.69174" cx="606.17309"/>
  <path id="svg_6" fill="#3f3d56" d="m627.329653,679.12227c-62.8793,96.67741 -95.07739,170.84006 -196.89778,173.63493c-108.66732,2.98188 -246.156,-59.92856 -321.85636,-142.8187c59.46107,-36.32289 163.69191,-73.28988 286.53092,-73.28988c87.24341,0 168.92841,18.64977 232.22322,42.47365z"/>
  <path id="svg_7" fill="#000000" d="m291.357333,291.95147s11.27956,8.06644 16.47448,-7.51831s3.11695,-16.62369 3.11695,-16.62369l-12.4678,0l-7.12363,24.142z"/>
  <path id="svg_8" opacity="0.1" d="m291.357333,291.95147s11.27956,8.06644 16.47448,-7.51831s3.11695,-16.62369 3.11695,-16.62369l-12.4678,0l-7.12363,24.142z"/>
  <circle id="svg_9" fill="#2f2e41" r="56.89348" cy="80.80858" cx="321.69059"/>
  <polygon id="svg_10" fill="#000000" points="273.105 250.734 270.587 295.544 306.334 296.551 300.293 227.574 278.643 226.567 273.105 250.734"/>
  <polygon id="svg_11" opacity="0.1" points="273.105 250.734 270.587 295.544 306.334 296.551 300.293 227.574 278.643 226.567 273.105 250.734"/>
  <path id="svg_12" fill="#bf5f00" d="m264.041843,402.78547l28.195,110.26259s2.51741,62.93527 19.13232,95.66161s14.0975,41.789 14.0975,41.789l14.601,-5.5383s-6.04178,-71.49447 -6.04178,-80.05366s-6.04176,-35.74724 -6.04176,-35.74724s5.5383,-32.72634 -4.02786,-63.94223s4.02786,-58.90742 4.02786,-58.90742l-63.94228,-3.52435z"/>
  <path id="svg_13" fill="#bf5f00" d="m336.543323,415.37247s18.62884,70.48751 16.61491,80.05367s15.10446,47.32733 15.10446,47.32733s7.04875,53.36911 9.06268,60.41786s16.11147,55.88651 16.11147,55.88651l19.63581,-4.02786s-4.53134,-121.3392 -14.601,-151.54813l-3.52437,-93.1442l-58.40396,5.03482z"/>
  <path id="svg_14" fill="#2f2e41" d="m325.466713,633.88373s-6.04179,-5.03482 -6.04179,-3.52437s3.0209,19.13232 3.0209,19.13232s-2.51742,10.06964 -3.0209,14.601c0,0 -12.587,7.55224 -13.09053,17.1184s-2.01393,16.61491 0,17.11839s34.23678,4.02786 34.74027,-1.007a57.81621,57.81621 0 0 0 0,-10.06965l2.01392,0l0,1.007s5.03483,-1.51045 5.53831,-3.0209s0,-19.13232 0,-19.13232a63.74914,63.74914 0 0 0 -2.51741,-16.11143l-1.51045,-23.16018s-14.601,4.02786 -14.601,6.04179s-4.53132,1.00695 -4.53132,1.00695z"/>
  <path id="svg_15" fill="#2f2e41" d="m406.023843,644.45686s0,-3.02089 -8.55919,0s-12.58706,6.04178 -12.08357,8.5592s5.03482,20.13928 5.03482,20.13928s-4.02786,19.13232 -1.007,26.18107s2.01393,7.04875 2.01393,7.04875s60.41786,-19.6358 59.4109,-22.65669s-3.52438,-13.594 -10.06965,-14.0975s-14.0975,5.5383 -17.11839,-2.01393s-6.54527,-9.56616 -9.56616,-18.62884c0,0 -1.007,-7.04875 -1.51045,-6.54527s-5.53824,3.02089 -6.54524,2.01393z"/>
  <path id="svg_16" fill="#bf5f00" d="m308.851843,122.84934s17.62187,27.69152 5.03482,33.7333s-13.594,3.52438 -13.594,3.52438l8.05572,59.41089l25.1741,17.1184l35.24375,-34.23679l1.007,-1.51045l3.52437,-40.782l-4.53134,-8.5592s-18.12535,2.51741 -19.6358,-12.58705s-3.52437,-24.67063 -3.52437,-24.67063l-36.75425,8.55915z"/>
  <circle id="svg_18" fill="#bf5f00" r="34.23679" cy="95.15782" cx="323.45278"/>
  <path id="svg_19" fill="#2f2e41" d="m333.522423,222.53881s-26.263,-63.82263 -28.78042,-63.82263s-15.58475,9.35086 -15.58475,9.35086l-7.49349,77.63194s11.07661,40.27858 3.02089,46.32036s-48.33428,92.64072 -41.789,101.7034s46.82385,35.24375 70.991,33.22982s87.10241,-8.05571 87.6059,-14.0975s-18.12536,-111.773 -20.64277,-113.28348s3.52437,-28.69849 3.52437,-28.69849l-4.02789,-103.71732l-6.04178,-14.0975l-18.12536,52.86562l-22.6567,16.61492z"/>
  <path id="svg_20" fill="#000000" d="m311.594203,159.56174c10.34538,-9.50021 6.8038,-9.93606 -2.779,-4.16036c-9.06511,5.46369 -37.51778,-0.74272 -40.74544,5.7126c-4.02786,8.05572 -6.54527,82.57108 -5.03482,84.585s-6.54527,77.53626 -3.52437,78.54322s8.55919,-6.04178 11.0766,-11.58009s24.67061,-108.75214 24.67061,-108.75214l16.33642,-44.34823z"/>
  <path id="svg_21" fill="#000000" d="m362.100503,153.66915c-13.25091,-6.41964 -7.81558,-6.77675 4.228,-2.99654c9.52727,2.99039 33.08742,9.14076 36.67448,9.93789c4.53134,1.007 10.57313,9.56616 10.06965,10.57312s-5.03483,52.36215 -5.03483,52.36215s4.53134,9.56616 6.04179,11.07661s24.16714,65.95616 19.13232,70.991s-46.32038,16.61489 -49.84475,11.58009s-3.52438,-35.24375 -12.08357,-40.78205s-22.6567,-71.99795 -15.608,-92.64072c4.7429,-13.88981 11.39706,-27.69272 6.42491,-30.10155z"/>
  <path id="svg_22" fill="#bf5f00" d="m424.652693,301.08202l-23.15016,15.55159s-32.23287,5.09118 -30.21894,-13.03418s29.202,-19.6358 29.202,-19.6358l13.594,1.007l10.5731,16.11139z"/>
  <path id="svg_23" fill="#bf5f00" d="m237.357333,284.46711l23.15016,15.55159s32.23288,5.09118 30.219,-13.03418s-29.202,-19.6358 -29.202,-19.6358l-13.594,1.007l-10.57316,16.11139z"/>
  <path id="svg_24" fill="#000000" d="m274.615013,160.61047a109.77452,109.77452 0 0 0 -24.67063,44.30643c-7.55223,27.188 -16.61491,35.24375 -16.61491,40.78205s1.51045,48.33429 5.03482,48.83777s1.51045,-26.18107 20.64277,-25.1741c0,0 -2.01393,-3.52438 0,-5.03483s2.51741,-2.51741 1.51045,-3.52437s-1.51045,-4.53134 0,-6.04179s2.51741,-9.06268 2.51741,-9.06268l4.02786,-1.51044l7.55223,-83.57804z"/>
  <ellipse id="svg_25" fill="#2f2e41" ry="17.11839" rx="41.78902" cy="70.23545" cx="325.71845"/>
  <path id="svg_26" fill="#000000" d="m411.562163,167.65925s66.96313,73.00491 63.43875,80.55715s-47.8308,65.95616 -49.34125,64.94919s-13.09054,-30.20893 -18.12536,-30.20893c0,0 17.54257,-3.88838 20.35138,-8.23771s16.9063,-21.97121 9.85755,-26.50255s-30.20893,-29.70545 -31.71938,-30.71242s5.53831,-49.84473 5.53831,-49.84473z"/>
  <circle id="svg_27" fill="#2f2e41" r="23.89662" cy="23.89662" cx="321.5462"/>
  <circle id="svg_33" opacity="0.3" fill="#000000" r="23" cy="254" cx="620.79367"/>
  <path id="svg_36" fill="#2f2e41" d="m533.253703,619.70047c-0.202,-1.17252 -4.852,-28.85254 3.89363,-40.08312a11.48607,11.48607 0 0 1 8.46236,-4.61584a12.59191,12.59191 0 0 1 9.64345,3.35269c10.51693,9.3901 11.56527,34.99486 11.60452,36.0803l-1.46011,0.05281c-0.01,-0.25976 -1.06546,-26.06862 -11.11925,-35.04338a11.16723,11.16723 0 0 0 -8.55585,-2.98516a10.07724,10.07724 0 0 0 -7.42116,4.05563c-8.35033,10.721 -3.656,38.65655 -3.60746,38.93772l-1.44013,0.24835z"/>
  <polygon id="svg_37" fill="#2f2e41" points="485.743 612.999 482.089 608.615 583.666 593.999 583.666 599.115 609.243 596.922 600.474 687.538 497.435 686.076 485.743 612.999"/>
  <polygon id="svg_38" opacity="0.05" fill="#fff" points="485.743 612.999 482.089 608.615 583.666 593.999 583.666 599.115 609.243 596.922 600.474 687.538 497.435 686.076 485.743 612.999"/>
  <polygon id="svg_39" fill="#2f2e41" points="612.897 692.653 517.955 732.517 517.166 732.846 479.897 713.846 481.724 608.249 513.147 610.442 509.493 614.826 510.282 614.68 608.878 596.557 612.897 692.653"/>
  <polygon id="svg_40" opacity="0.1" points="517.955 732.517 479.897 713.846 481.724 608.249 513.147 610.442 509.493 614.826 510.282 614.68 509.858 615.192 517.955 732.517"/>
  <path id="svg_41" stroke-width="2" stroke-miterlimit="10" stroke="#2f2e41" fill="none" d="m548.589153,619.57632s-7.30769,-42.38461 11.69231,-43.84615s20.46153,38.73077 20.46153,38.73077"/>
 </g>
</svg>